<svg xmlns="http://www.w3.org/2000/svg" width="1000" height="248" viewBox="0 0 1000 248">
<g>
<path d="M 306.00 215.60 C306.00,208.05 316.47,187.74 324.19,180.31 C328.91,175.77 338.19,170.43 345.71,167.93 C351.08,166.14 353.89,165.85 362.34,166.17 C371.78,166.54 373.03,166.84 379.99,170.40 C384.11,172.51 390.59,176.27 394.39,178.75 C398.19,181.24 404.05,184.36 407.40,185.68 C413.87,188.25 413.13,188.29 425.07,184.82 C430.31,183.29 438.51,174.54 440.04,168.83 C441.76,162.46 439.65,153.80 435.13,148.65 C431.78,144.84 427.86,143.66 419.29,143.88 C411.85,144.08 409.82,144.62 397.79,149.61 C390.48,152.65 382.12,155.77 379.20,156.56 C373.07,158.22 365.40,158.45 364.50,157.00 C364.16,156.45 363.19,156.00 362.35,156.00 C359.98,156.00 349.59,148.32 346.11,143.99 C342.32,139.27 341.00,136.00 341.00,131.30 C341.00,126.94 345.53,122.21 352.44,119.37 C356.20,117.82 356.99,117.05 357.00,114.88 C357.00,113.45 356.16,111.20 355.14,109.88 C348.41,101.28 347.03,91.19 351.64,84.39 C357.55,75.68 367.41,71.81 386.50,70.73 L 390.50 70.50 L 390.50 62.50 L 390.50 54.50 L 330.50 54.21 C297.50,54.05 268.59,54.19 266.25,54.52 L 262.00 55.12 L 262.00 64.00 C262.00,68.89 262.43,73.15 262.96,73.47 C263.49,73.80 267.42,73.53 271.71,72.88 C285.16,70.84 300.06,70.67 306.35,72.50 C315.93,75.28 322.43,81.97 324.35,90.98 C325.21,95.07 326.53,159.00 325.75,159.00 C325.57,159.00 323.66,158.10 321.50,157.00 C319.34,155.90 317.03,155.00 316.36,155.00 C315.69,155.00 314.24,153.85 313.13,152.43 C310.50,149.09 306.85,149.03 300.50,152.23 C291.50,156.76 284.47,158.22 271.85,158.18 C265.44,158.16 259.37,157.72 258.35,157.19 C257.33,156.67 254.93,155.56 253.00,154.73 C243.54,150.64 235.03,140.46 235.01,133.22 C234.98,122.89 245.39,110.97 260.50,104.04 C270.29,99.55 272.97,99.00 285.15,99.00 C296.44,99.00 297.37,99.16 303.11,102.06 C310.31,105.69 312.00,105.03 312.00,98.59 C312.00,95.00 311.41,93.83 307.75,90.26 C302.12,84.74 297.62,83.00 289.02,83.00 C278.94,83.00 256.29,88.39 248.75,92.58 C246.05,94.09 246.00,94.07 246.00,91.39 C246.00,89.88 246.75,87.83 247.66,86.82 C249.06,85.27 249.31,82.68 249.25,70.53 C249.21,62.59 248.88,55.61 248.53,55.04 C247.75,53.78 159.19,53.59 157.21,54.85 C155.63,55.85 155.91,74.60 157.50,74.34 C158.05,74.25 162.66,73.46 167.75,72.59 C179.35,70.60 195.37,70.51 200.76,72.42 C208.70,75.22 213.00,78.76 215.75,84.77 C217.17,87.87 218.54,92.57 218.80,95.22 C219.05,97.87 219.65,100.28 220.13,100.58 C220.99,101.11 221.41,159.00 220.56,159.00 C219.23,159.00 205.16,152.06 204.57,151.12 C203.45,149.30 199.27,149.83 194.15,152.43 C182.94,158.10 163.49,160.01 151.88,156.56 C144.62,154.40 136.79,149.02 133.08,143.61 C130.37,139.68 130.00,138.32 130.02,132.32 C130.05,126.15 130.37,125.06 133.48,120.82 C137.40,115.49 146.89,107.30 152.03,104.83 C162.68,99.71 165.94,99.00 178.88,99.00 C189.73,99.01 191.96,99.29 194.77,101.00 C199.52,103.90 203.79,103.67 204.59,100.49 C205.48,96.97 204.28,91.55 202.23,89.78 C201.28,88.96 198.16,87.04 195.29,85.51 C190.35,82.87 189.59,82.76 180.29,83.26 C169.12,83.86 146.71,89.51 142.92,92.68 C142.05,93.41 141.04,94.00 140.67,94.00 C139.22,94.00 140.11,89.13 142.00,86.73 C143.78,84.46 144.00,82.68 143.98,70.34 C143.98,62.73 143.61,55.93 143.17,55.24 C142.53,54.23 129.26,54.03 79.18,54.24 L 16.00 54.50 L 16.00 49.86 C16.00,46.55 16.45,45.04 17.58,44.61 C20.04,43.66 441.33,43.92 442.82,44.87 C443.65,45.39 444.02,47.16 443.82,49.60 L 443.50 53.50 L 425.50 54.00 C415.60,54.28 406.94,54.86 406.25,55.31 C404.25,56.60 404.53,77.39 406.57,79.43 C409.01,81.87 410.45,81.38 416.60,76.00 C419.74,73.25 422.93,71.00 423.69,71.00 C428.80,71.00 438.01,78.91 437.99,83.28 C437.98,84.50 436.42,87.46 434.51,89.87 L 431.04 94.23 L 430.00 91.37 C427.86,85.47 426.59,83.96 422.81,82.83 C419.32,81.78 418.75,81.89 416.49,84.01 C413.56,86.76 413.36,88.64 415.72,91.25 C418.42,94.23 418.21,107.89 415.41,111.68 C409.72,119.34 401.20,122.07 378.50,123.48 C372.45,123.85 365.98,124.56 364.12,125.04 C358.96,126.37 353.16,130.87 350.30,135.76 L 347.72 140.15 L 349.68 142.83 C354.63,149.61 362.50,149.96 375.51,143.99 C386.86,138.77 404.31,131.74 407.00,131.29 C419.33,129.23 424.54,130.33 431.90,136.56 C435.65,139.73 444.56,157.10 443.65,159.47 C443.35,160.24 443.65,161.05 444.31,161.27 C445.95,161.82 446.55,181.23 445.07,186.17 C444.22,188.99 442.86,190.58 439.72,192.42 C433.58,196.01 427.08,197.28 424.29,195.45 C423.07,194.65 421.26,194.00 420.27,194.00 C417.61,194.00 408.93,190.65 402.39,187.11 C399.23,185.40 395.82,184.00 394.82,184.00 C393.82,184.00 393.00,183.60 393.00,183.11 C393.00,182.62 391.54,181.98 389.75,181.68 C387.96,181.39 384.48,180.62 382.00,179.98 C373.16,177.68 368.84,177.77 358.50,180.46 C346.53,183.57 338.19,187.32 330.33,193.12 C322.42,198.95 310.68,210.94 309.07,214.82 C307.51,218.59 306.00,218.97 306.00,215.60 ZM 170.93 146.87 C182.70,143.12 200.22,133.38 203.44,128.78 C208.40,121.70 202.40,116.05 185.74,112.12 C171.08,108.67 153.46,113.98 142.11,125.27 C133.41,133.92 132.47,142.48 139.76,146.43 C143.15,148.27 165.53,148.58 170.93,146.87 ZM 277.20 146.60 C291.57,142.79 311.94,129.88 311.98,124.55 C312.00,122.05 306.19,116.00 303.77,116.00 C302.76,116.00 300.82,115.28 299.47,114.39 C298.09,113.48 296.03,113.02 294.76,113.33 C293.52,113.63 291.63,113.23 290.56,112.44 C286.48,109.41 269.52,111.65 260.11,116.47 C254.36,119.41 247.62,125.16 243.87,130.34 C241.67,133.38 241.00,135.41 241.00,139.06 C241.00,143.35 241.32,144.01 244.25,145.83 C247.02,147.53 249.32,147.85 259.70,147.92 C267.25,147.97 273.92,147.47 277.20,146.60 ZM 388.69 116.04 C400.24,110.25 407.44,100.45 407.42,90.53 C407.40,81.30 401.43,76.40 390.50,76.63 C382.25,76.80 374.54,79.98 367.78,86.01 C362.18,91.00 360.15,94.90 358.66,103.54 C357.60,109.68 363.63,118.43 369.50,119.27 C377.91,120.48 380.79,119.99 388.69,116.04 ZM 17.68 47.81 C17.36,47.01 17.13,47.25 17.08,48.42 C17.04,49.47 17.27,50.06 17.60,49.73 C17.94,49.40 17.97,48.53 17.68,47.81 ZM 40.50 157.35 C36.65,155.52 32.71,153.47 31.75,152.79 C30.14,151.65 30.00,148.60 30.00,113.28 L 30.00 75.00 L 39.03 75.00 L 48.05 75.00 L 48.65 78.00 C48.98,79.65 49.84,81.00 50.56,81.00 C51.27,81.00 56.21,78.91 61.53,76.36 C72.06,71.30 79.34,70.06 90.39,71.44 C100.50,72.71 111.23,81.84 113.51,91.12 C114.81,96.42 112.22,102.12 105.51,108.71 C96.45,117.61 95.28,117.68 87.96,109.88 C84.68,106.38 82.00,103.20 82.00,102.81 C82.00,102.43 85.17,100.44 89.04,98.41 C96.90,94.28 99.64,91.42 100.59,86.38 C101.84,79.69 97.79,75.11 89.09,73.37 C76.84,70.92 57.32,86.81 50.85,104.50 C48.89,109.87 48.60,113.13 48.08,135.59 L 47.50 160.67 L 40.50 157.35 ZM 470.71 145.38 C470.32,144.99 470.00,127.19 470.00,105.83 L 470.00 67.00 L 475.75 66.88 C478.91,66.82 482.10,66.84 482.84,66.94 C484.79,67.21 495.03,74.61 542.50,110.03 C560.10,123.17 565.37,126.09 566.42,123.34 C566.74,122.51 567.00,109.50 567.00,94.42 L 567.00 67.00 L 574.01 67.00 L 581.02 67.00 L 580.76 106.25 L 580.50 145.50 L 574.00 145.74 C566.72,146.02 569.72,147.73 542.79,127.93 C499.80,96.33 486.62,87.00 484.95,87.00 C483.11,87.00 483.02,88.18 482.77,116.25 L 482.50 145.50 L 476.96 145.79 C473.91,145.96 471.10,145.77 470.71,145.38 ZM 609.50 144.37 C607.30,143.60 604.26,141.62 602.75,139.97 L 600.00 136.97 L 600.00 106.92 C600.00,76.34 600.24,74.17 603.91,71.23 C609.06,67.12 610.57,67.00 655.97,67.00 C699.66,67.00 699.71,67.00 703.10,69.25 C705.01,70.52 707.60,73.69 709.00,76.50 C711.42,81.35 711.51,82.23 711.82,105.32 C712.00,119.12 711.74,129.63 711.20,130.32 C710.68,130.97 709.97,133.12 709.62,135.09 C708.82,139.52 705.87,142.38 700.00,144.41 C693.71,146.59 615.74,146.55 609.50,144.37 ZM 693.75 131.15 C694.71,131.03 695.00,125.25 695.00,106.00 L 695.00 81.00 L 655.14 81.00 L 615.28 81.00 L 614.65 86.25 C613.85,92.88 613.83,125.76 614.62,128.70 C615.10,130.50 616.04,130.95 619.85,131.20 C624.39,131.49 691.28,131.45 693.75,131.15 ZM 859.75 144.92 C858.14,143.98 858.00,141.34 858.01,112.20 L 858.02 80.50 L 861.03 75.26 C865.88,66.79 864.52,67.00 914.37,67.02 C954.58,67.04 957.78,67.17 961.68,68.94 C968.99,72.26 969.00,72.32 969.00,111.45 L 969.00 146.00 L 963.02 146.00 C955.76,146.00 956.08,146.82 955.74,127.50 L 955.50 113.50 L 915.71 113.24 C889.41,113.07 875.25,113.33 873.96,114.02 C872.14,114.99 872.00,116.21 872.00,130.54 L 872.00 146.00 L 866.75 145.97 C863.86,145.95 860.71,145.48 859.75,144.92 ZM 954.42 98.39 C955.66,97.92 956.00,96.23 956.00,90.59 C956.00,86.33 955.51,82.91 954.80,82.20 C953.23,80.63 874.45,80.46 873.48,82.03 C872.44,83.71 871.69,93.62 872.39,96.41 L 873.04 99.00 L 912.94 99.00 C934.88,99.00 953.55,98.73 954.42,98.39 ZM 778.99 141.40 C776.05,140.04 769.33,136.08 764.07,132.60 C758.81,129.13 752.70,125.34 750.50,124.19 C743.37,120.47 733.71,113.57 731.58,110.68 C729.66,108.08 729.47,106.27 729.18,87.43 L 728.85 67.00 L 735.93 67.00 L 743.00 67.00 L 743.00 83.45 C743.00,93.69 743.43,100.86 744.15,102.42 C745.23,104.80 761.59,115.97 773.50,122.48 C776.25,123.98 779.05,125.66 779.72,126.20 C782.96,128.84 787.48,127.39 800.50,119.52 C815.75,110.30 825.21,104.08 826.23,102.58 C826.64,101.98 826.98,93.74 826.98,84.25 L 827.00 67.00 L 833.50 67.00 L 840.00 67.00 L 840.00 87.57 C840.00,98.88 839.57,108.93 839.05,109.91 C837.68,112.46 795.66,139.15 787.91,142.39 C784.55,143.80 784.02,143.74 778.99,141.40 Z" fill="rgba(0,0,0,1)"/>
</g>
</svg>